<?xml version="1.0" encoding="UTF-8" standalone="no"?>
<svg viewBox="0 0 356 422" version="1.1" xmlns="http://www.w3.org/2000/svg" xmlns:xlink="http://www.w3.org/1999/xlink">
    <g id="Page-1" stroke="none" stroke-width="1" fill="none" fill-rule="evenodd">
        <g id="Artboard-2-Copy-4" transform="translate(-72.000000, -39.000000)" fill="#E45D35">
            <g id="logo-copy-4" transform="translate(72.000000, 39.000000)">
                <path d="M176.002535,2.24351262 C177.105704,0.332888041 178.895361,0.334733565 179.997465,2.24351262 L355.231045,305.737772 C356.334215,307.648397 355.542322,308.583182 353.47138,307.849601 C353.47138,307.849601 268.280601,275.872027 178.117534,275.872027 C87.9544664,275.872027 2.5084375,307.859974 2.5084375,307.859974 C0.444578346,308.598539 -0.333148979,307.646551 0.768954855,305.737772 L176.002535,2.24351262 Z M177.663238,102.55729 C177.939811,102.079277 178.391304,102.084598 178.664799,102.55729 L256.894122,237.764198 C257.170695,238.242211 256.964703,238.51202 256.43192,238.371222 C256.43192,238.371222 226.393185,229.833363 178.208315,229.833355 C130.023445,229.833348 99.8987198,238.371222 99.8987198,238.371222 C99.3654416,238.513985 99.16042,238.236889 99.4339145,237.764198 L177.663238,102.55729 Z" id="Combined-Shape"></path>
                <path d="M177.09995,318.353203 C177.45449,317.943252 178.032321,317.95808 178.386849,318.387039 C178.386849,318.387039 213.458154,359.754673 233.394058,413.796799 C233.394061,413.796802 211.618302,422.034947 177.773015,422.034941 C143.927729,422.034936 122.089744,413.7968 122.089744,413.796799 C140.813686,359.417454 177.09995,318.353203 177.09995,318.353203 Z" id="Triangle-7-Copy" transform="translate(177.741901, 370.045103) scale(1, -1) translate(-177.741901, -370.045103) "></path>
            </g>
        </g>
    </g>
</svg>
