<?xml version="1.0" encoding="UTF-8" standalone="no"?>
<svg width="375px" height="375px" viewBox="0 0 375 375" version="1.1" xmlns="http://www.w3.org/2000/svg" xmlns:xlink="http://www.w3.org/1999/xlink" xmlns:sketch="http://www.bohemiancoding.com/sketch/ns">
    <!-- Generator: Sketch 3.4 (15575) - http://www.bohemiancoding.com/sketch -->
    <title>Shape Copy 5 + Shape Copy 6</title>
    <desc>Created with Sketch.</desc>
    <defs></defs>
    <g id="Page-1" stroke="none" stroke-width="1" fill="none" fill-rule="evenodd" sketch:type="MSPage">
        <g id="Artboard-2-Copy" sketch:type="MSArtboardGroup" transform="translate(-63.000000, -63.000000)" fill="#E45D35">
            <g id="Rectangle-5-+-Shape-Copy-5-+-Shape-Copy-6" sketch:type="MSLayerGroup">
                <g id="Shape-Copy-5-+-Shape-Copy-6" transform="translate(63.000000, 63.000000)" sketch:type="MSShapeGroup">
                    <g transform="translate(64.200566, 60.614224)" id="Shape">
                        <path d="M71.5247845,207.048087 L175.074084,207.048087 L182.582456,207.048087 L178.905651,200.50158 L127.131001,108.317448 L123.299434,101.49539 L119.467867,108.317448 L67.6932176,200.50158 L64.0164122,207.048087 L71.5247845,207.048087 L71.5247845,207.048087 Z M71.5247845,198.259025 L75.3563513,204.805532 L127.131001,112.621399 L119.467867,112.621399 L171.242517,204.805532 L175.074084,198.259025 L71.5247845,198.259025 L71.5247845,198.259025 Z"></path>
                        <path d="M127.087823,0 L119.511045,0 L117.014404,0 L115.736165,2.14460232 L2.08449424,192.826849 L0.665275536,195.207983 L2.20290398,197.514425 L7.25408932,205.091203 L8.55867859,207.048087 L10.9105603,207.048087 L37.4292834,207.048087 L39.9688399,207.048087 L41.236837,204.847739 L127.106988,55.8377718 L119.491881,55.8377718 L205.362032,204.847739 L206.630029,207.048087 L209.169585,207.048087 L235.688308,207.048087 L238.04019,207.048087 L239.344779,205.091203 L244.395965,197.514425 L245.933593,195.207983 L244.514374,192.826849 L130.862704,2.14460232 L129.584464,0 L127.087823,0 L127.087823,0 Z M127.087823,8.7890625 L123.312943,6.64446018 L236.964613,197.326707 L237.083023,192.639131 L232.031837,200.215909 L235.688308,198.259025 L209.169585,198.259025 L212.977139,200.459373 L127.106988,51.449405 L123.299434,44.8421797 L119.491881,51.449405 L33.6217298,200.459373 L37.4292834,198.259025 L10.9105603,198.259025 L14.5670314,200.215909 L9.51584602,192.639131 L9.63425576,197.326707 L123.285926,6.64446018 L119.511045,8.7890625 L127.087823,8.7890625 L127.087823,8.7890625 Z"></path>
                    </g>
                    <path d="M187.5,375 C291.053391,375 375,291.053391 375,187.5 C375,83.9466094 291.053391,0 187.5,0 C83.9466094,0 0,83.9466094 0,187.5 C0,291.053391 83.9466094,375 187.5,375 L187.5,375 Z M187.5,366.210938 C88.8006746,366.210938 8.7890625,286.199325 8.7890625,187.5 C8.7890625,88.8006746 88.8006746,8.7890625 187.5,8.7890625 C286.199325,8.7890625 366.210938,88.8006746 366.210938,187.5 C366.210938,286.199325 286.199325,366.210938 187.5,366.210938 L187.5,366.210938 Z" id="Shape"></path>
                </g>
            </g>
        </g>
    </g>
</svg>