<?xml version="1.0" encoding="UTF-8" standalone="no"?>
<svg viewBox="0 0 325 392" version="1.1" xmlns="http://www.w3.org/2000/svg" xmlns:xlink="http://www.w3.org/1999/xlink">
    <g id="Page-1" stroke="none" stroke-width="1" fill="none" fill-rule="evenodd">
        <g id="Artboard-2-Copy-4" transform="translate(-88.000000, -54.000000)" fill="#E45D35">
            <g id="logo" transform="translate(88.000000, 54.000000)">
                <path d="M160.497572,2.22707624 C161.603482,0.312704282 163.400148,0.318988465 164.502428,2.22707624 L324.119105,278.529449 C325.225015,280.443821 324.431519,281.423554 322.330808,280.732943 C322.330808,280.732943 244.919088,253.672234 162.607299,253.672234 C80.2955101,253.672234 2.65032788,280.742155 2.65032788,280.742155 C0.567186602,281.434484 -0.221385188,280.437537 0.880894993,278.529449 L160.497572,2.22707624 Z M162.149221,95.6069853 C162.425648,95.1294754 162.870254,95.1233091 163.15025,95.6069853 L234.480786,218.826076 C234.757213,219.303586 234.542654,219.570996 234.017165,219.432729 C234.017165,219.432729 206.679171,211.664498 162.690175,211.664491 C118.701179,211.664484 91.2849057,219.432728 91.2849057,219.432728 C90.7509924,219.575193 90.5386886,219.309752 90.8186849,218.826076 L162.149221,95.6069853 Z" id="Combined-Shape"></path>
                <path d="M161.50233,282.708326 C162.053328,281.756511 162.948621,281.759877 163.49767,282.708326 L220.406082,381.014089 C220.95708,381.965904 220.560958,383.03749 219.51254,383.388974 C219.51254,383.388974 198.355701,391.452429 162.532932,391.452423 C126.710164,391.452417 105.481485,383.385417 105.481485,383.385417 C104.440297,383.027584 104.044869,381.962538 104.593918,381.014089 L161.50233,282.708326 Z" id="Triangle-7-Copy" transform="translate(162.500468, 336.724075) scale(1, -1) translate(-162.500468, -336.724075) "></path>
            </g>
        </g>
    </g>
</svg>
