<?xml version="1.0" encoding="UTF-8" standalone="no"?>
<svg viewBox="0 0 663 256" version="1.1" xmlns="http://www.w3.org/2000/svg" xmlns:xlink="http://www.w3.org/1999/xlink" xmlns:sketch="http://www.bohemiancoding.com/sketch/ns">
    <g id="Page-1" stroke="none" stroke-width="1" fill="none" fill-rule="evenodd" sketch:type="MSPage">
        <g id="logo-copy-+-Shape-Copy-5-+-Shape-Copy-6" sketch:type="MSLayerGroup" transform="translate(3.000000, 3.000000)">
            <g id="logo-copy" transform="translate(312.000000, 68.000000)" fill="#E45D35" sketch:type="MSShapeGroup">
                <path d="M0,113.190743 L0,108.53467 L76.9142577,8.34882074 L2.72973357,8.34882074 L2.72973357,0.802771225 L88.7966274,0.802771225 L88.7966274,5.45884433 L11.8823697,105.644693 L88.7966274,105.644693 L88.7966274,113.190743 L0,113.190743 Z M114.44983,113.190743 L166.796485,0 L174.825113,0 L227.171769,113.190743 L218.019133,113.190743 L203.728175,81.7221107 L137.411706,81.7221107 L123.120748,113.190743 L114.44983,113.190743 Z M140.944303,74.1760612 L200.195578,74.1760612 L170.650227,9.15159196 L140.944303,74.1760612 Z M258.766156,113.190743 L258.766156,0.802771225 L305.171627,0.802771225 C318.017496,0.802771225 327.758801,4.12085911 334.395833,10.7571344 C339.213034,15.5737858 341.621599,21.460716 341.621599,28.4181014 L341.621599,28.7392098 C341.621599,41.3695403 335.252284,50.253453 322.513464,55.3912145 C339.427191,59.7797191 347.883929,68.7171494 347.883929,82.2037734 L347.883929,82.5248819 C347.883929,91.8370747 344.217558,99.2760136 336.884708,104.841922 C329.551858,110.40783 319.783791,113.190743 307.580215,113.190743 L258.766156,113.190743 Z M267.115929,52.6617923 L304.208191,52.6617923 C312.879153,52.6617923 319.86399,50.6281256 325.162911,46.560731 C330.461832,42.4933365 333.111253,36.8204766 333.111253,29.5419811 L333.111253,29.2208726 C333.111253,22.9057074 330.649165,17.875058 325.724915,14.1287736 C320.800665,10.3824891 313.896114,8.50937498 305.011054,8.50937498 L267.115929,8.50937498 L267.115929,52.6617923 Z M267.115929,105.484139 L307.90136,105.484139 C317.535762,105.484139 325.189645,103.423713 330.863237,99.3028005 C336.536829,95.1818876 339.373583,89.589304 339.373583,82.5248819 L339.373583,82.2037734 C339.373583,75.246388 336.429782,69.8678746 330.542092,66.0680718 C324.654402,62.268269 316.197665,60.3683961 305.171627,60.3683961 L267.115929,60.3683961 L267.115929,105.484139 Z" id="ZAB-Copy"></path>
            </g>
            <g id="Shape-Copy-5-+-Shape-Copy-6" stroke="#E45D35" stroke-width="6" sketch:type="MSShapeGroup">
                <g transform="translate(44.827586, 41.379310)">
                    <path d="M44.8275862,135.344828 L115.517241,135.344828 L80.1724138,72.4137931 L44.8275862,135.344828 Z" id="Shape-Copy-5"></path>
                    <path d="M82.7586207,0 L77.5862069,0 L0,130.172414 L3.44827586,135.344828 L21.5517241,135.344828 L80.1724138,33.6206897 L138.793103,135.344828 L156.896552,135.344828 L160.344828,130.172414 L82.7586207,0 Z" id="Shape-Copy-6"></path>
                </g>
                <circle id="Oval-4" cx="125" cy="125" r="125"></circle>
            </g>
        </g>
    </g>
</svg>
