<?xml version="1.0" encoding="UTF-8" standalone="no"?>
<svg viewBox="0 0 293 134" version="1.1" xmlns="http://www.w3.org/2000/svg" xmlns:xlink="http://www.w3.org/1999/xlink">
    <g id="Page-1" stroke="none" stroke-width="1" fill="none" fill-rule="evenodd">
        <g id="Artboard-4" transform="translate(-11.000000, -15.000000)" fill="#E45D35">
            <g id="Group" transform="translate(11.000000, 15.000000)">
                <g id="Group-2-Copy-2" transform="translate(142.000000, 36.000000)">
                    <path d="M0.220762666,59.9067225 C0.220762666,60.768712 0.996553242,61.5445026 1.85854277,61.5445026 L38.062103,61.5445026 C39.0102915,61.5445026 39.6998831,60.768712 39.6998831,59.9067225 L39.6998831,54.9933822 C39.6998831,54.1313927 39.0102915,53.3556021 38.062103,53.3556021 L12.8920087,53.3556021 L12.8920087,53.2694031 L41.4238621,3.96360209 L41.4238621,2.84301571 C41.4238621,1.98102618 40.6480716,1.2052356 39.786082,1.2052356 L4.3583124,1.2052356 C3.49632288,1.2052356 2.7205323,1.98102618 2.7205323,2.84301571 L2.7205323,7.84255497 C2.7205323,8.7045445 3.49632288,9.48033508 4.3583124,9.48033508 L28.6664171,9.48033508 L28.6664171,9.82513089 L0.220762666,58.3551414 L0.220762666,59.9067225 Z M45.7338098,61.5445026 L51.1643438,61.5445026 C52.1987313,61.5445026 52.8883229,60.854911 53.1469197,60.2515183 C54.8708988,56.2863665 56.6810768,52.4074136 58.4050559,48.4422618 L86.5921135,48.4422618 L91.9364485,60.2515183 C92.2812443,61.0273089 92.884637,61.5445026 93.9190244,61.5445026 L99.3495585,61.5445026 C100.642543,61.5445026 101.332134,60.4239162 100.814941,59.3033298 L74.52426,1.29143455 C74.2656632,0.774240838 73.4898726,0.343246073 73.0588778,0.343246073 L72.1968883,0.343246073 C71.7658936,0.343246073 70.990103,0.774240838 70.7315061,1.29143455 L44.2684276,59.3033298 C43.7512339,60.4239162 44.4408255,61.5445026 45.7338098,61.5445026 L45.7338098,61.5445026 Z M61.766815,41.0291518 L72.2830873,17.4106387 L72.714082,17.4106387 L83.3165532,41.0291518 L61.766815,41.0291518 Z M109.434836,59.9067225 C109.434836,60.768712 110.124428,61.5445026 111.072616,61.5445026 L131.32937,61.5445026 C142.190438,61.5445026 150.120742,54.5623874 150.120742,44.9081047 C150.120742,36.977801 143.914417,32.7540524 139.345873,30.8576754 C143.397223,28.5303037 148.310564,23.7893613 148.310564,17.1520419 C148.310564,8.10115183 140.811255,1.2052356 130.381182,1.2052356 L111.072616,1.2052356 C110.124428,1.2052356 109.434836,1.98102618 109.434836,2.84301571 L109.434836,59.9067225 Z M118.227129,27.4097173 L118.227129,9.30793717 L129.863988,9.30793717 C135.380721,9.30793717 138.74248,12.9282932 138.74248,18.1864293 C138.74248,23.3583665 135.380721,27.4097173 129.863988,27.4097173 L118.227129,27.4097173 Z M118.14093,53.614199 L118.14093,35.167623 L129.950187,35.167623 C135.553119,35.167623 140.552658,38.960377 140.552658,44.2185131 C140.552658,49.5628482 136.501307,53.614199 131.243171,53.614199 L118.14093,53.614199 Z" id="ZAB"></path>
                </g>
                <g id="logo-copy-4">
                    <path d="M53.9909912,2.07971742 C55.1005361,0.164506633 56.9015132,0.168044125 58.0090088,2.07971742 L111.384391,94.212182 C112.493935,96.1273928 111.704415,97.0815295 109.614831,96.3811514 C109.614831,96.3811514 84.91008,87.0442639 56.0376371,87.0442639 C27.1651943,87.0442639 2.37808705,96.3864636 2.37808705,96.3864636 C0.295152658,97.1008519 -0.491886042,96.1238553 0.615609477,94.212182 L53.9909912,2.07971742 Z M55.5457136,32.3278164 C55.8256165,31.845674 56.2796123,31.8459901 56.5593317,32.3278164 L80.9174012,74.2854242 C81.1973041,74.7675666 80.9953455,75.0448919 80.4477235,74.9092869 C80.4477235,74.9092869 71.4966939,72.3510734 56.0667075,72.3510709 C40.6367211,72.3510684 31.6394092,74.9141972 31.6394092,74.9141972 C31.1100033,75.0490778 30.9079248,74.7672505 31.1876442,74.2854242 L55.5457136,32.3278164 Z" id="Combined-Shape"></path>
                    <path d="M55.2735896,100.814674 C55.6291288,100.397591 56.2053301,100.406167 56.5500186,100.83058 C56.5500186,100.83058 67.3545774,113.509612 73.7385468,130.757099 C73.7385475,130.7571 66.7654112,133.386295 55.9273139,133.386294 C45.0892165,133.386292 38.0961538,130.7571 38.0961538,130.757099 C44.0920231,113.401989 55.2735896,100.814674 55.2735896,100.814674 Z" id="Triangle-7-Copy" transform="translate(55.917350, 116.946647) scale(1, -1) translate(-55.917350, -116.946647) "></path>
                </g>
            </g>
        </g>
    </g>
</svg>
