<?xml version="1.0" encoding="UTF-8" standalone="no"?>
<svg viewBox="0 0 290 147" version="1.1" xmlns="http://www.w3.org/2000/svg" xmlns:xlink="http://www.w3.org/1999/xlink">
    <g id="Page-1" stroke="none" stroke-width="1" fill="none" fill-rule="evenodd">
        <g id="Artboard-4" transform="translate(-3.000000, -7.000000)" fill="#E45D35">
            <g id="Group-2-Copy-2" transform="translate(3.000000, 7.000000)">
                <g id="logo">
                    <path d="M58.5743133,2.28804967 C59.6791533,0.377136301 61.4708581,0.377836938 62.575293,2.28804967 L120.278475,102.090533 C121.383315,104.001447 120.569642,104.984297 118.474817,104.326305 C118.474817,104.326305 91.6562913,94.8782967 60.6152672,94.8782967 C29.5742431,94.8782967 2.66709525,104.331505 2.66709525,104.331505 C0.570371556,105.004764 -0.233303907,104.000746 0.871131064,102.090533 L58.5743133,2.28804967 Z M60.1345365,35.8511127 C60.4088753,35.3776074 60.8508381,35.372726 61.128005,35.8511127 L87.411867,81.2167404 C87.6862057,81.6902458 87.4765367,81.9592362 86.9450693,81.8266102 C86.9450693,81.8266102 77.2354388,79.0498423 60.646521,79.0498396 C44.0576033,79.0498369 34.3199682,81.8266098 34.3199682,81.8266098 C33.7864457,81.9632936 33.5735076,81.6951271 33.8506745,81.2167404 L60.1345365,35.8511127 Z" id="Combined-Shape"></path>
                    <path d="M59.5771812,106.259163 C60.1281526,105.308193 61.0285922,105.320514 61.5724251,106.259163 L81.7906795,141.155625 C82.3416509,142.106595 81.9333648,143.168921 80.8916658,143.487465 C80.8916658,143.487465 74.0965317,146.16128 60.5872223,146.161278 C47.0779129,146.161276 40.2625542,143.487464 40.2625542,143.487464 C39.2125232,143.150595 38.8150938,142.094274 39.3589268,141.155625 L59.5771812,106.259163 Z" id="Triangle-7-Copy" transform="translate(60.576087, 125.855913) scale(1, -1) translate(-60.576087, -125.855913) "></path>
                </g>
                <text id="ZAB" font-family="BrandonGrotesque-Medium, Brandon Grotesque" font-size="86.1989529" font-weight="400">
                    <tspan x="136.893391" y="102.544503">ZAB</tspan>
                </text>
            </g>
        </g>
    </g>
</svg>
