<?xml version="1.0" encoding="UTF-8" standalone="no"?>
<svg viewBox="0 0 290 147" version="1.1" xmlns="http://www.w3.org/2000/svg" xmlns:xlink="http://www.w3.org/1999/xlink">
    <g id="Page-1" stroke="none" stroke-width="1" fill="none" fill-rule="evenodd">
        <g id="Artboard-4" transform="translate(-3.000000, -7.000000)" fill="#E45D35">
            <g id="Group-2-Copy-2" transform="translate(3.000000, 7.000000)">
                <g id="logo">
                    <path d="M58.5743133,2.28804967 C59.6791533,0.377136301 61.4708581,0.377836938 62.575293,2.28804967 L120.278475,102.090533 C121.383315,104.001447 120.569642,104.984297 118.474817,104.326305 C118.474817,104.326305 91.6562913,94.8782967 60.6152672,94.8782967 C29.5742431,94.8782967 2.66709525,104.331505 2.66709525,104.331505 C0.570371556,105.004764 -0.233303907,104.000746 0.871131064,102.090533 L58.5743133,2.28804967 Z M60.1345365,35.8511127 C60.4088753,35.3776074 60.8508381,35.372726 61.128005,35.8511127 L87.411867,81.2167404 C87.6862057,81.6902458 87.4765367,81.9592362 86.9450693,81.8266102 C86.9450693,81.8266102 77.2354388,79.0498423 60.646521,79.0498396 C44.0576033,79.0498369 34.3199682,81.8266098 34.3199682,81.8266098 C33.7864457,81.9632936 33.5735076,81.6951271 33.8506745,81.2167404 L60.1345365,35.8511127 Z" id="Combined-Shape"></path>
                    <path d="M59.5771812,106.259163 C60.1281526,105.308193 61.0285922,105.320514 61.5724251,106.259163 L81.7906795,141.155625 C82.3416509,142.106595 81.9333648,143.168921 80.8916658,143.487465 C80.8916658,143.487465 74.0965317,146.16128 60.5872223,146.161278 C47.0779129,146.161276 40.2625542,143.487464 40.2625542,143.487464 C39.2125232,143.150595 38.8150938,142.094274 39.3589268,141.155625 L59.5771812,106.259163 Z" id="Triangle-7-Copy" transform="translate(60.576087, 125.855913) scale(1, -1) translate(-60.576087, -125.855913) "></path>
                </g>
                <path d="M139.220763,100.906723 C139.220763,101.768712 139.996553,102.544503 140.858543,102.544503 L177.062103,102.544503 C178.010291,102.544503 178.699883,101.768712 178.699883,100.906723 L178.699883,95.9933822 C178.699883,95.1313927 178.010291,94.3556021 177.062103,94.3556021 L151.892009,94.3556021 L151.892009,94.2694031 L180.423862,44.9636021 L180.423862,43.8430157 C180.423862,42.9810262 179.648072,42.2052356 178.786082,42.2052356 L143.358312,42.2052356 C142.496323,42.2052356 141.720532,42.9810262 141.720532,43.8430157 L141.720532,48.842555 C141.720532,49.7045445 142.496323,50.4803351 143.358312,50.4803351 L167.666417,50.4803351 L167.666417,50.8251309 L139.220763,99.3551414 L139.220763,100.906723 Z M184.73381,102.544503 L190.164344,102.544503 C191.198731,102.544503 191.888323,101.854911 192.14692,101.251518 C193.870899,97.2863665 195.681077,93.4074136 197.405056,89.4422618 L225.592113,89.4422618 L230.936449,101.251518 C231.281244,102.027309 231.884637,102.544503 232.919024,102.544503 L238.349558,102.544503 C239.642543,102.544503 240.332134,101.423916 239.814941,100.30333 L213.52426,42.2914346 C213.265663,41.7742408 212.489873,41.3432461 212.058878,41.3432461 L211.196888,41.3432461 C210.765894,41.3432461 209.990103,41.7742408 209.731506,42.2914346 L183.268428,100.30333 C182.751234,101.423916 183.440825,102.544503 184.73381,102.544503 L184.73381,102.544503 Z M200.766815,82.0291518 L211.283087,58.4106387 L211.714082,58.4106387 L222.316553,82.0291518 L200.766815,82.0291518 Z M248.434836,100.906723 C248.434836,101.768712 249.124428,102.544503 250.072616,102.544503 L270.32937,102.544503 C281.190438,102.544503 289.120742,95.5623874 289.120742,85.9081047 C289.120742,77.977801 282.914417,73.7540524 278.345873,71.8576754 C282.397223,69.5303037 287.310564,64.7893613 287.310564,58.1520419 C287.310564,49.1011518 279.811255,42.2052356 269.381182,42.2052356 L250.072616,42.2052356 C249.124428,42.2052356 248.434836,42.9810262 248.434836,43.8430157 L248.434836,100.906723 Z M257.227129,68.4097173 L257.227129,50.3079372 L268.863988,50.3079372 C274.380721,50.3079372 277.74248,53.9282932 277.74248,59.1864293 C277.74248,64.3583665 274.380721,68.4097173 268.863988,68.4097173 L257.227129,68.4097173 Z M257.14093,94.614199 L257.14093,76.167623 L268.950187,76.167623 C274.553119,76.167623 279.552658,79.960377 279.552658,85.2185131 C279.552658,90.5628482 275.501307,94.614199 270.243171,94.614199 L257.14093,94.614199 Z" id="ZAB"></path>
            </g>
        </g>
    </g>
</svg>
