<?xml version="1.0" standalone="no"?>
<!DOCTYPE svg PUBLIC "-//W3C//DTD SVG 20010904//EN"
 "http://www.w3.org/TR/2001/REC-SVG-20010904/DTD/svg10.dtd">
<svg version="1.0" xmlns="http://www.w3.org/2000/svg"
 width="500.000000pt" height="500.000000pt" viewBox="0 0 500.000000 500.000000"
 preserveAspectRatio="xMidYMid meet">
<metadata>
Created by potrace 1.11, written by Peter Selinger 2001-2013
</metadata>
<g transform="translate(0.000000,500.000000) scale(0.100000,-0.100000)"
fill="#000000" stroke="none">
<path d="M2473 4572 c-23 -35 -30 -47 -96 -162 -30 -52 -103 -178 -162 -280
-59 -102 -116 -201 -127 -220 -11 -19 -37 -64 -58 -100 -21 -36 -47 -81 -58
-100 -10 -19 -70 -123 -132 -230 -62 -107 -121 -208 -130 -225 -9 -16 -86
-149 -170 -294 -84 -146 -160 -279 -170 -295 -9 -17 -43 -76 -75 -131 -58
-101 -166 -287 -257 -445 -26 -47 -53 -92 -58 -100 -35 -59 -140 -241 -140
-244 0 -2 -18 -34 -41 -71 -63 -104 -80 -137 -75 -142 3 -3 47 9 98 25 92 31
251 79 285 87 10 3 72 18 138 35 128 32 371 84 445 95 24 4 47 8 50 10 3 2 30
6 60 9 30 3 66 8 79 11 13 2 46 7 75 10 28 4 65 8 81 10 220 28 709 28 930 0
117 -14 204 -26 226 -30 13 -3 44 -7 68 -10 24 -3 46 -7 50 -9 3 -2 30 -7 60
-11 30 -4 64 -10 75 -15 12 -4 24 -8 29 -8 77 -3 426 -94 670 -173 65 -22 122
-39 127 -39 14 0 3 22 -85 175 -107 184 -348 600 -373 645 -10 19 -59 103
-107 185 -48 83 -97 168 -109 190 -13 22 -74 128 -136 235 -62 107 -122 211
-133 230 -10 19 -86 150 -167 290 -81 140 -157 272 -169 293 -42 73 -59 103
-91 157 -18 30 -42 71 -52 90 -10 19 -27 49 -37 65 -10 17 -77 133 -150 259
-72 126 -136 235 -142 243 -17 19 -25 16 -46 -15z m166 -1217 c28 -50 304
-527 321 -555 5 -8 27 -46 49 -85 22 -38 94 -162 159 -275 66 -113 119 -206
117 -208 -1 -2 -47 6 -101 17 -55 10 -123 22 -153 26 -30 4 -63 8 -74 10 -134
26 -777 27 -914 1 -10 -2 -38 -7 -63 -10 -47 -6 -182 -30 -238 -42 l-32 -7 78
134 c72 122 537 926 584 1009 11 19 45 77 75 129 l55 93 55 -93 c30 -52 67
-116 82 -144z"/>
<path d="M2338 1425 c-2 -2 -30 -5 -63 -9 -87 -9 -213 -32 -278 -51 l-56 -16
19 -52 c65 -186 200 -445 340 -652 64 -94 189 -255 198 -254 18 1 196 253 295
419 78 131 190 354 237 473 27 69 28 68 -70 91 -160 38 -299 54 -472 53 -81 0
-149 -1 -150 -2z"/>
</g>
</svg>
