<?xml version="1.0" standalone="no"?>
<!DOCTYPE svg PUBLIC "-//W3C//DTD SVG 20010904//EN"
 "http://www.w3.org/TR/2001/REC-SVG-20010904/DTD/svg10.dtd">
<svg version="1.0" xmlns="http://www.w3.org/2000/svg"
 width="500.000000pt" height="500.000000pt" viewBox="0 0 500.000000 500.000000"
 preserveAspectRatio="xMidYMid meet">
<metadata>
Created by potrace 1.11, written by Peter Selinger 2001-2013
</metadata>
<g transform="translate(0.000000,500.000000) scale(0.100000,-0.100000)"
fill="#000000" stroke="none">
<path d="M2433 4348 c-175 -300 -473 -818 -473 -823 0 -3 -5 -11 -11 -18 -8
-9 -187 -318 -344 -592 -12 -22 -73 -128 -135 -235 -62 -107 -121 -208 -130
-225 -58 -100 -361 -624 -401 -693 -42 -71 -59 -112 -45 -112 2 0 48 14 102
30 226 70 538 142 779 179 187 29 193 29 270 36 39 3 81 8 94 10 121 21 632
21 738 1 10 -2 54 -7 98 -11 44 -4 89 -9 100 -11 11 -2 40 -6 65 -9 25 -3 56
-8 70 -10 14 -3 41 -7 60 -10 19 -3 58 -10 85 -15 28 -5 65 -12 84 -15 19 -3
37 -7 40 -9 3 -2 22 -7 41 -10 53 -9 79 -14 149 -32 36 -9 72 -17 80 -19 23
-4 101 -25 136 -36 163 -50 230 -68 236 -61 4 4 -72 142 -167 307 -96 165
-180 311 -188 325 -7 14 -52 92 -100 173 -47 82 -86 150 -86 153 0 3 -8 17
-19 32 -18 26 -179 303 -236 407 -31 55 -63 110 -83 140 -6 11 -15 27 -19 35
-4 8 -16 31 -28 50 -12 19 -33 55 -47 80 -14 25 -151 261 -303 525 -153 264
-283 489 -289 500 -25 45 -41 65 -52 65 -6 0 -38 -46 -71 -102z m155 -975
c246 -424 632 -1094 632 -1098 0 -6 -79 3 -90 10 -3 2 -21 6 -40 9 -19 3 -44
7 -55 10 -11 2 -51 7 -88 11 -37 3 -77 8 -89 10 -70 14 -475 21 -583 11 -22
-2 -71 -7 -110 -10 -67 -6 -233 -30 -285 -41 -95 -20 -93 -20 -80 6 13 25 221
385 500 864 86 149 167 289 180 313 13 23 25 42 26 42 1 0 38 -62 82 -137z"/>
<path d="M2285 1629 c-27 -4 -72 -10 -100 -14 -27 -4 -70 -11 -95 -16 -25 -5
-58 -12 -75 -15 -16 -3 -45 -12 -63 -20 -28 -11 -32 -16 -23 -33 6 -10 68
-117 137 -237 70 -121 137 -237 149 -259 13 -22 71 -123 130 -225 59 -102 117
-202 128 -223 12 -20 26 -36 31 -34 9 2 189 301 269 444 7 12 41 72 77 134 36
62 76 130 89 153 13 23 40 70 61 106 94 162 92 158 71 170 -21 11 -120 34
-211 50 -30 5 -71 12 -90 15 -52 9 -428 13 -485 4z"/>
</g>
</svg>
